<?xml version="1.0" encoding="UTF-8"?>
<svg version="1.1" xmlns="http://www.w3.org/2000/svg" width="500" height="500">
<path d="M0 0 C165 0 330 0 500 0 C500 165 500 330 500 500 C335 500 170 500 0 500 C0 335 0 170 0 0 Z " fill="#000000" transform="translate(0,0)"/>
<path d="M0 0 C5.61 0 11.22 0 17 0 C15.01490105 6.24065481 12.71692479 12.17023626 10 18.125 C9.31208133 19.64824849 8.6245754 21.17168346 7.9375 22.6953125 C7.63714844 23.35547363 7.33679688 24.01563477 7.02734375 24.69580078 C5.6509736 27.7828211 4.3291213 30.89236316 3 34 C2.00281723 36.29883492 1.00406847 38.59699105 0.00390625 40.89453125 C-0.56062535 42.19332527 -1.12507592 43.49215451 -1.68945312 44.79101562 C-2.56184963 46.79857866 -3.43465106 48.80595998 -4.30883789 50.81274414 C-7.36213835 57.8233564 -10.37411523 64.84019173 -13.17944336 71.95483398 C-14.22189937 74.55306486 -15.37381812 77.09071454 -16.5625 79.625 C-17.9702454 82.67938092 -19.30643803 85.70802648 -20.4375 88.875 C-22.18183338 93.70929536 -24.41783021 98.31519766 -26.58984375 102.96875 C-28.47884471 107.02931717 -30.23285007 111.13646496 -31.9375 115.27734375 C-35.73705487 124.47279426 -39.71812615 133.58728984 -43.6953125 142.70703125 C-46.24426065 148.55504217 -48.76549889 154.41051172 -51.1875 160.3125 C-53.70110509 166.36800318 -56.36045262 172.35376422 -59.05737305 178.3293457 C-60.76885906 182.14247671 -62.39994017 185.96945706 -63.9296875 189.859375 C-66.49538238 196.34211832 -69.44927999 202.63967772 -72.37695312 208.96484375 C-74.80596005 214.25172335 -77.00253101 219.53633482 -79 225 C-80.28459148 228.02458998 -81.64351192 231.00637113 -83 234 C-87.95 234 -92.9 234 -98 234 C-98.886875 231.81375 -99.77375 229.6275 -100.6875 227.375 C-105.48374542 215.65932667 -110.58195187 204.07161178 -115.62898254 192.46257019 C-119.09127866 184.49495956 -122.50745723 176.50774 -125.921875 168.51953125 C-127.0706261 165.83494988 -128.22248412 163.15171716 -129.375 160.46875 C-130.16673688 158.62503015 -130.95840443 156.78128053 -131.75 154.9375 C-132.12970947 154.05312256 -132.50941895 153.16874512 -132.90063477 152.25756836 C-134.86093014 147.68412421 -136.79472497 143.10192267 -138.6875 138.5 C-140.35251413 134.46620289 -142.14480699 130.51241726 -144 126.5625 C-151.17876519 111.16618189 -151.17876519 111.16618189 -153 103 C-153.66 103 -154.32 103 -155 103 C-155.34546875 104.14597656 -155.6909375 105.29195313 -156.046875 106.47265625 C-158.56565925 114.01286293 -161.98955956 121.19696546 -165.25 128.4375 C-166.31824895 130.82252877 -167.3849635 133.20824025 -168.45166016 135.59396362 C-169.18521433 137.2342609 -169.91926846 138.87433468 -170.65380859 140.51419067 C-174.63755278 149.41070269 -178.57041849 158.32946386 -182.5 167.25 C-184.645 172.1175 -186.79 176.985 -189 182 C-172.83 182 -156.66 182 -140 182 C-135 193 -135 193 -135 197 C-155.13 197 -175.26 197 -196 197 C-196.99 199.97 -196.99 199.97 -198 203 C-198.55163317 204.34659876 -199.12471101 205.68471997 -199.72412109 207.01074219 C-200.05141205 207.73880066 -200.378703 208.46685913 -200.71591187 209.21697998 C-201.06489532 209.98584534 -201.41387878 210.75471069 -201.7734375 211.546875 C-202.13845367 212.35811829 -202.50346985 213.16936157 -202.87954712 214.00518799 C-204.04196189 216.58803559 -205.2081231 219.16916556 -206.375 221.75 C-212.47690847 235.14677581 -212.47690847 235.14677581 -218.09570312 248.74951172 C-219.9237044 253.29878702 -222.01287538 257.73486721 -224.0625 262.1875 C-227.42717248 269.48738556 -227.42717248 269.48738556 -230.65625 276.84765625 C-231.86267994 279.67785672 -233.13404746 282.4636031 -234.4375 285.25 C-236.12598569 288.93351195 -237.61169603 292.60924103 -238.9375 296.4375 C-240.7053596 301.44998546 -242.97488572 306.06508426 -245.40625 310.78515625 C-248.19702593 316.41458906 -250.56713005 322.2074525 -253 328 C-258.61 328 -264.22 328 -270 328 C-269.15999634 323.79998172 -268.17468721 320.80671838 -266.453125 316.95703125 C-265.9375 315.80009766 -265.421875 314.64316406 -264.890625 313.45117188 C-264.34921875 312.25041016 -263.8078125 311.04964844 -263.25 309.8125 C-262.7240625 308.63107422 -262.198125 307.44964844 -261.65625 306.23242188 C-259.34923149 301.0787481 -257.01400467 295.96614577 -254.421875 290.94921875 C-252.61113546 287.38670735 -251.11737687 283.8020121 -249.71875 280.05859375 C-246.72668319 272.08790487 -243.19976056 264.3822118 -239.6725769 256.63809204 C-237.65933811 252.21596689 -235.65945438 247.78781672 -233.66015625 243.359375 C-233.26107559 242.47566727 -232.86199493 241.59195953 -232.45082092 240.68147278 C-228.87730835 232.7548047 -225.38327715 224.79542331 -221.9375 216.8125 C-221.41816895 215.60996582 -220.89883789 214.40743164 -220.36376953 213.16845703 C-217.99696369 207.67335129 -215.64572854 202.17184963 -213.30859375 196.6640625 C-212.89424072 195.68977295 -212.4798877 194.7154834 -212.05297852 193.71166992 C-211.29845861 191.93475599 -210.5473257 190.15639772 -209.80053711 188.3762207 C-208.1060634 184.3795226 -206.28915861 180.69991916 -204 177 C-203.28266871 175.07624791 -202.56737313 173.15162499 -201.875 171.21875 C-200.93128215 168.82575117 -199.81067463 166.59492367 -198.625 164.3125 C-196.73058621 160.60799351 -195.14355001 156.8975076 -193.6875 153 C-190.1916933 143.67049695 -186.03454465 134.62500084 -181.88720703 125.57055664 C-177.78602649 116.6045796 -173.86282873 107.5622941 -169.93310547 98.52026367 C-169.01670333 96.41263427 -168.09831131 94.30588058 -167.1796875 92.19921875 C-166.90462372 91.56473312 -166.62955994 90.9302475 -166.34616089 90.27653503 C-161.75324704 79.75324704 -161.75324704 79.75324704 -160 78 C-157.64686445 77.92728259 -155.29166332 77.91629132 -152.9375 77.9375 C-151.00197266 77.95103516 -151.00197266 77.95103516 -149.02734375 77.96484375 C-148.02832031 77.97644531 -147.02929688 77.98804688 -146 78 C-140.74928657 89.42090664 -135.54887191 100.88553499 -130.95703125 112.58984375 C-129.86227705 115.34683699 -128.713784 118.07864603 -127.5625 120.8125 C-125.76572632 125.09499431 -124.0752962 129.40431375 -122.4375 133.75 C-120.82989561 137.98000905 -119.06648361 141.97585048 -116.96484375 145.9765625 C-115.79424563 148.43150107 -114.90305059 150.93491466 -114 153.5 C-112.58664073 157.5137195 -110.95692878 161.22311161 -108.99609375 164.9921875 C-106.55584292 169.91096761 -104.71083581 175.11276499 -102.77734375 180.24609375 C-100.73527336 185.64790075 -98.66366097 190.89722582 -95.98046875 196.01171875 C-94.06479266 199.89649615 -92.55611331 203.96072714 -91 208 C-90.48050781 206.96101562 -89.96101562 205.92203125 -89.42578125 204.8515625 C-89.09022217 204.18060547 -88.75466309 203.50964844 -88.40893555 202.81835938 C-87.67420308 201.34856723 -86.93999607 199.87851231 -86.20629883 198.40820312 C-84.63625473 195.26325733 -83.06213274 192.12142692 -81.4609375 188.9921875 C-79.32925888 184.82037474 -77.41450283 180.69795593 -75.84545898 176.28344727 C-72.42205577 167.03739175 -68.27974053 158.05514961 -64.25 149.0625 C-58.07304855 135.22089939 -51.9990263 121.33798831 -46.25 107.3125 C-44.82924358 103.8648624 -43.28834168 100.55468739 -41.5625 97.25 C-38.96143387 92.2037676 -37.03510589 86.96318412 -35.14282227 81.62011719 C-33.7620774 77.77993529 -32.11835032 74.47252121 -30 71 C-29.1471059 68.91187997 -28.33638639 66.80617257 -27.5625 64.6875 C-26.18865443 61.02527883 -24.82301729 57.46151866 -23 54 C-20.72387558 49.64805011 -19.08162197 45.08658897 -17.3515625 40.49609375 C-15.51667508 35.7497809 -13.49960544 31.09043564 -11.4765625 26.421875 C-10.08114816 23.18805763 -8.72139571 19.94197798 -7.375 16.6875 C-2.64566929 5.29133858 -2.64566929 5.29133858 0 0 Z " fill="#BB2877" transform="translate(375,70)"/>
</svg>
